<svg xmlns="http://www.w3.org/2000/svg" width="368" height="368" viewBox="0 0 368 368">
  <g id="AlexaComm" transform="translate(-566 -497)">
    <g id="Group_618" data-name="Group 618" transform="translate(566 497)">
      <circle id="Ellipse_50" data-name="Ellipse 50" cx="184" cy="184" r="184"/>
    </g>
    <path id="icons8-amazon-alexa-logo" d="M131.127,4A127.19,127.19,0,0,0,114.18,257.236V231.609a16.855,16.855,0,0,0-11.4-16.018,89.027,89.027,0,1,1,117.331-84.4,91.154,91.154,0,0,1-1.043,13.678C208.173,216.665,114.7,257.02,114.193,257.242a129.331,129.331,0,0,0,16.934,1.119A127.181,127.181,0,0,0,131.127,4" transform="translate(619.97 550.979)" fill="#29b6f6" fill-rule="evenodd"/>
  </g>
</svg>
