<svg xmlns="http://www.w3.org/2000/svg" width="368" height="368" viewBox="0 0 368 368">
  <g id="Auctave" transform="translate(-1332 -497)">
    <circle id="Ellipse_49" data-name="Ellipse 49" cx="184" cy="184" r="184" transform="translate(1332 497)"/>
    <path id="Path_8399" data-name="Path 8399" d="M925.45,254.128c-19.3,33.322-38.278,66.076-57.25,98.828l.3.6,37.676-7.918c.055,1.083.125,1.818.125,2.555,0,11.655-.036,23.311.033,34.968a3.541,3.541,0,0,1-2.312,3.764c-8.3,3.417-16.5,7.087-24.927,10.161a156.955,156.955,0,0,1-19.213,5.554A178.351,178.351,0,0,1,842,405.433c-13.027,1.574-26.128,1.358-39.217,1.266a11.737,11.737,0,0,1-2.512-.574,12.8,12.8,0,0,1,.812-2.434q11.506-20.142,23.078-40.244c5.113-8.874,10.315-17.694,15.427-26.568,6.433-11.164,12.8-22.369,19.229-33.536,4-6.943,8.085-13.836,12.095-20.773q12.074-20.9,24.107-41.823,9.286-16.115,18.566-32.236Q919.053,199,924.525,189.5c.166-.285.389-.537.793-1.083.537.756,1,1.311,1.361,1.927Q937,208.031,947.294,225.736q13.9,23.953,27.749,47.929c7.037,12.186,14.015,24.407,21.064,36.587,6.733,11.637,13.54,23.229,20.288,34.858q13.895,23.95,27.744,47.929c2.057,3.559,4.05,7.154,6.056,10.742,1.177,2.106.707,2.9-1.672,2.94-7.1.127-14.2.293-21.307.4a109.059,109.059,0,0,1-24.2-2.423c-7.541-1.6-15.1-3.157-22.564-5.049-10.088-2.553-19.67-6.546-29.09-10.928-1.832-.853-3.641-1.759-5.468-2.621a4.307,4.307,0,0,1-2.7-4.291c.044-11.447.013-22.893.02-34.34,0-2.347.3-2.442,2.586-1.907,5.141,1.2,10.319,2.24,15.469,3.4,6.374,1.43,12.735,2.921,19.105,4.363.707.161,1.447.177,2.7.321Z" transform="translate(589.642 364.627)" fill="#fff"/>
  </g>
</svg>
