<svg xmlns="http://www.w3.org/2000/svg" width="368" height="368" viewBox="0 0 368 368">
  <g id="HouseItt" transform="translate(-959 -105)">
    <circle id="Ellipse_45" data-name="Ellipse 45" cx="184" cy="184" r="184" transform="translate(959 105)"/>
    <g id="Group_388" data-name="Group 388" transform="translate(987.02 228.289)">
      <path id="Path_8400" data-name="Path 8400" d="M938.9,221.686c2.524-5.219,5.018-10.379,7.511-15.54q1.908-3.951,3.811-7.9c1.138-2.356,5.466-4.192,8.247-3.506,2.668.656,4.584,3.555,4.724,6.484a14.161,14.161,0,0,1-2.529,9.153,58.257,58.257,0,0,0-3.28,5.851c-.2.37-.745.867-.177,1.237a1.216,1.216,0,0,0,1.481-.153c.273-.254.534-.523.8-.786,5.24-5.273,10.569-10.459,16.046-15.486,2.542-2.335,5.568-2.135,8.541-1.151,2.888.956,3.585,3.514,3.658,6.166.08,2.854-.467,5.361-2.972,7.481-6.362,5.389-12.445,11.107-18.641,16.695-.2.177-.394.359-.6.527a2.451,2.451,0,0,0-.695,2.186c.045.626,1.014.532,1.594.644,10.291,2,18.766,6.745,24.355,15.949a21.734,21.734,0,0,1,3.219,14.2c-.28,2.4-4.41,5.316-7.123,4.747-3.064-.644-5.531-1.973-6.725-5.32-3.011-8.443-8.763-14.259-17.793-15.662-13.65-2.124-23.04,2.759-28.119,17.165a16.515,16.515,0,0,0-.981,6.278c.181,3.986-.486,8.018.643,11.955,3.254,11.354,12.392,18.223,24.176,18.484,11.076.247,18.68-6.252,22.231-14.522a3.014,3.014,0,0,1,1.567-1.661,13.934,13.934,0,0,1,5.554-1.842c2.892-.1,4.588,1.134,5.139,3.93a14.25,14.25,0,0,1-.88,9.075c-4.833,10.218-12.83,16.939-23.623,19.743a43.051,43.051,0,0,1-26.261-1.771c-8.509-3.2-14.077-9.587-18.1-17.483a51.382,51.382,0,0,1-4.765-13.988c-.56-3.019.12-6.075.344-9.107.437-5.909.975-11.81,1.481-17.713.5-5.851,1.018-11.7,1.515-17.552q.692-8.14,1.36-16.28c.43-5.161.8-10.328,1.308-15.48.385-3.869,5.755-7.448,9.493-6.454,2.365.63,5.04,4.429,4.881,7.1-.233,3.945-.568,7.885-.829,11.828C938.42,220,938.067,220.88,938.9,221.686Z" transform="translate(-735.222 -194.592)" fill="#12558c"/>
      <path id="Path_8401" data-name="Path 8401" d="M985.9,251.108c-6.473,0-12.945.043-19.416-.037a1.735,1.735,0,0,0-2.038,1.558c-1.438,5.193-4.1,9.525-9.176,11.9-6.538,3.058-16.551,1.6-21.406-5.7a20.9,20.9,0,0,1-3.68-12.936c.2-4.915,1.425-9.234,4.6-12.975a14.952,14.952,0,0,1,11.61-5.531,29.01,29.01,0,0,1,6.08.136c6.71,1.3,10.257,5.836,12.208,11.989.017.05.015.107.028.157.288,1.119.239,2.783.947,3.222.94.579,2.471.23,3.749.228q31.293-.031,62.584-.1a4.523,4.523,0,0,1,4.25,2.826c1.022,1.954-1.216,4.836-3.753,4.922q-2.326.078-4.653,0c-.842-.028-1.121.267-1.1,1.1.049,1.818.017,3.637.013,5.455a4.4,4.4,0,0,1-.235,1.732c-.872,2.109-2.249,3.239-3.674,2.965-1.4-.269-3.411-2.81-3.446-4.446-.041-1.872-.05-3.745.006-5.615.028-.9-.258-1.173-1.169-1.192-3.428-.075-3.428-.11-3.435,3.228,0,1.231-.062,2.464.007,3.689a3.933,3.933,0,0,1-.885,2.656c-.928,1.261-2.038,2.066-3.68,1.636a5.119,5.119,0,0,1-3.116-3.908c-.011-1.818-.05-3.641.06-5.453.082-1.324-.168-1.827-1.7-1.8-6.521.11-13.046.047-19.571.047Z" transform="translate(-725.277 -166.209)" fill="#fcc80d"/>
      <path id="Path_8402" data-name="Path 8402" d="M841.041,245.37c0,4.063.015,8.126-.006,12.189-.011,2.04-.792,2.86-2.612,2.86s-2.608-.813-2.625-2.845c-.026-2.832-.039-5.666.009-8.5.017-.915-.282-1.2-1.19-1.179q-3.847.078-7.7,0c-.865-.017-1.087.3-1.078,1.115.037,2.832.043,5.666,0,8.5-.026,1.943-.813,2.813-2.468,2.9a2.4,2.4,0,0,1-2.864-2.641c-.06-2.243-.017-4.489-.017-6.734,0-5.935-.011-11.869.008-17.8.006-1.986.74-2.86,2.376-2.978,1.891-.134,2.918.749,2.959,2.71.056,2.725.067,5.453-.007,8.178-.028,1.08.336,1.349,1.36,1.323q3.688-.1,7.379,0c1.024.03,1.261-.333,1.242-1.289-.058-2.725-.039-5.453-.013-8.18.019-1.986.828-2.778,2.7-2.748,1.748.028,2.518.829,2.529,2.767C841.056,237.137,841.04,241.254,841.041,245.37Z" transform="translate(-820.482 -163.644)" fill="#fcc80d"/>
      <path id="Path_8403" data-name="Path 8403" d="M893.211,251.342a35.837,35.837,0,0,0,1.653,3.206c.738,1.147.28,1.741-.755,2.214a16.412,16.412,0,0,1-13.8.331,9.014,9.014,0,0,1-3.37-2.656c-6.138-7.453-1.864-19.541,7.517-21.254,8.04-1.468,14.571,4.438,13.708,12.379-.14,1.3-.469,2.019-2.094,1.974-4.806-.136-9.62-.007-14.43-.078-1.216-.017-1.423.325-1.16,1.435.8,3.368,4.25,5.283,8.4,4.577A7.506,7.506,0,0,0,893.211,251.342Z" transform="translate(-773.968 -161.291)" fill="#fcc80d"/>
      <path id="Path_8404" data-name="Path 8404" d="M857.83,245.72c-.108,4.79-1.4,9.015-6,11.393-8.15,4.214-16.99-.913-17.453-10.048-.162-3.209.161-6.3,2-9.054,2.851-4.265,8.021-6,13.48-4.537,4.683,1.255,7.679,5.313,7.969,10.8C857.852,244.756,857.83,245.238,857.83,245.72Z" transform="translate(-808.455 -161.286)" fill="#fcc80d"/>
      <path id="Path_8405" data-name="Path 8405" d="M865.3,255.815c-3.2,1.825-6.278,2.727-9.641,2.068-3.641-.715-5.9-2.957-6.054-6.648-.226-5.653-.1-11.322-.151-16.984-.006-.73.314-.949.968-.88a1.121,1.121,0,0,0,.159,0c4.55-.194,4.55-.194,4.55,4.353,0,3.473-.021,6.945.006,10.418.024,3.084.891,4.485,3,5,2.3.562,5.667-.771,6.788-2.653a3.386,3.386,0,0,0,.314-1.862c0-4.648.032-9.3-.022-13.943-.011-1.052.289-1.414,1.341-1.332a25.924,25.924,0,0,0,3.364,0c.863-.047,1.083.3,1.08,1.115q-.036,11.057,0,22.117c0,.884-.224,1.267-1.162,1.2a15.161,15.161,0,0,0-2.882.008C865.582,257.959,864.935,257.526,865.3,255.815Z" transform="translate(-795.331 -160.985)" fill="#fcc80d"/>
      <path id="Path_8406" data-name="Path 8406" d="M912.385,255.512a31.716,31.716,0,0,0,.028,3.751c.187,1.459-.521,1.818-1.767,1.967a18.5,18.5,0,0,1-6.054.06,6.162,6.162,0,0,1-5.32-5.606c-.521-3.93-.179-7.892-.194-11.84,0-1.494,0-2.583-2.008-2.262-1.339.213-.947-1.029-.811-1.549.284-1.076-1.018-2.994.783-3.121,1.874-.133,2.109-.712,2.038-2.305-.121-2.768-.034-2.774,2.57-3.73.992-.366,1.988-.719,3.138-1.136,0,1.948.071,3.755-.024,5.552-.062,1.147.187,1.634,1.457,1.524,1.431-.125,2.884.011,4.324-.045.773-.03.962.23.992.988.157,3.854.181,3.852-3.566,3.852-3.183,0-3.183,0-3.183,3.114,0,2.4-.024,4.808.008,7.211.058,4.42,2.471,5.91,6.536,4.065C911.613,255.875,911.892,255.742,912.385,255.512Z" transform="translate(-754.873 -164.082)" fill="#12558c"/>
      <path id="Path_8407" data-name="Path 8407" d="M914.55,229.734c0,1.982.123,3.7-.036,5.391-.142,1.509.443,1.806,1.778,1.694s2.671.015,4-.039c.76-.032.971.2,1,.977.163,3.863.189,3.861-3.717,3.861-3.034,0-3.034,0-3.034,3.1,0,2.4-.024,4.806.007,7.211.058,4.409,2.481,5.912,6.529,4.08l1.059-.484c0,1.612-.039,3.075.017,4.534.028.745-.431.919-.958,1.022a18.206,18.206,0,0,1-6.529.288c-3.822-.639-5.791-3.2-5.856-7.579q-.078-5.366.011-10.734c.015-1.031-.129-1.674-1.341-1.44-1.324.252-1.7-.383-1.528-1.584a3.87,3.87,0,0,0,0-1.119c-.226-1.524.1-2.5,1.947-2.128.686.136.936-.176.915-.884-.037-1.278.008-2.559.043-3.839a.506.506,0,0,1,.29-.346C910.894,231.07,912.637,230.434,914.55,229.734Z" transform="translate(-746.339 -164.088)" fill="#12558c"/>
      <path id="Path_8408" data-name="Path 8408" d="M865.52,251.67a9.782,9.782,0,0,0,6.437,1.857c1.143-.1,2.268-.353,2.582-1.728a2.727,2.727,0,0,0-1.319-3.017,21.48,21.48,0,0,0-3.73-1.838,12.637,12.637,0,0,1-4.278-2.763,6.182,6.182,0,0,1,1.9-10.151c3.805-1.707,7.612-1.184,11.358.338.523.213.725.493.473,1.089-.5,1.173-.915,2.378-1.382,3.611a10.539,10.539,0,0,0-5.675-1.2c-1.128.075-2.124.417-2.451,1.67-.34,1.3.447,2.047,1.453,2.535,1.823.884,3.723,1.61,5.537,2.511a6.709,6.709,0,0,1,4.141,6.164c.069,3.422-1.524,5.877-4.829,6.923a14.292,14.292,0,0,1-11.348-.867c-.7-.368-.93-.689-.54-1.451C864.456,254.169,864.954,252.933,865.52,251.67Z" transform="translate(-783.286 -161.282)" fill="#fcc80d"/>
      <path id="Path_8409" data-name="Path 8409" d="M890.481,245.475c0-5.133.032-10.268-.026-15.4-.011-1.059.284-1.414,1.326-1.3,1.522.166,3.561-.661,4.438.336.755.857.26,2.843.261,4.33.011,9.039-.011,18.079.026,27.116.006,1.149-.125,1.818-1.519,1.629-1.461-.2-3.439.622-4.28-.334-.725-.822-.22-2.744-.224-4.181C890.474,253.6,890.481,249.54,890.481,245.475Z" transform="translate(-759.863 -165.066)" fill="#12558c"/>
      <path id="Path_8410" data-name="Path 8410" d="M883.417,241.028c-1.707,0-3.417,0-5.124,0-.43,0-.812.071-.7-.659a5.863,5.863,0,0,1,5.651-4.784c3.262-.1,5.434,1.476,6.037,4.326.172.813.036,1.169-.895,1.136C886.729,240.984,885.072,241.028,883.417,241.028Z" transform="translate(-770.928 -159.015)"/>
      <path id="Path_8411" data-name="Path 8411" d="M849.171,243.364a11.54,11.54,0,0,1-.9,4.7,5.275,5.275,0,0,1-5.414,3.213,4.984,4.984,0,0,1-4.765-3.841,13.089,13.089,0,0,1-.168-7.274c.777-2.972,2.824-4.618,5.582-4.579,2.864.039,4.657,1.6,5.333,4.765A28.349,28.349,0,0,1,849.171,243.364Z" transform="translate(-805.719 -159.013)"/>
    </g>
  </g>
</svg>
