<svg xmlns="http://www.w3.org/2000/svg" width="368" height="368" viewBox="0 0 368 368">
  <g id="Microsoft" transform="translate(-542 -58)">
    <g id="Ellipse_44" data-name="Ellipse 44" transform="translate(542 58)" stroke="#707070" stroke-width="1">
      <circle cx="184" cy="184" r="184" stroke="none"/>
      <circle cx="184" cy="184" r="183.5" fill="none"/>
    </g>
    <g id="microsoft-2" data-name="microsoft" transform="translate(612.885 128.885)">
      <path id="Path_8395" data-name="Path 8395" d="M272,105.348H377.348V7.023A7.026,7.026,0,0,0,370.325,0H272Z" transform="translate(-152.606)" fill="#4caf50"/>
      <path id="Path_8396" data-name="Path 8396" d="M105.348,105.348V0H7.023A7.026,7.026,0,0,0,0,7.023v98.325Z" fill="#f44336"/>
      <path id="Path_8397" data-name="Path 8397" d="M105.348,272H0v98.325a7.026,7.026,0,0,0,7.023,7.023h98.325Z" transform="translate(0 -152.606)" fill="#2196f3"/>
      <path id="Path_8398" data-name="Path 8398" d="M272,272V377.348h98.325a7.026,7.026,0,0,0,7.023-7.023V272Z" transform="translate(-152.606 -152.606)" fill="#ffc107"/>
    </g>
  </g>
</svg>
