<svg xmlns="http://www.w3.org/2000/svg" viewBox="0 0 205.76 215.73"><defs><style>.cls-1{fill:#231f20;stroke:#231f20;stroke-miterlimit:10;stroke-width:2px;}</style></defs><g id="Layer_2" data-name="Layer 2"><g id="Layer_1-2" data-name="Layer 1"><path class="cls-1" d="M50.32,76.69c26.56-28.49,56.93-47.85,69.22-60.23a7.42,7.42,0,0,1,4.91-2.19c25.43-1.2,26,0,31.57,0,2,0,1.88.68,5.11-.85,4.07-1.93,7.15-10.21,12.26-11.74,4.91-1.48,6.46-.17,14.8,2,6.84,1.81,6,3.23,10.22,6.81,1.09.92,6.32,6,6.35,7.22a2.12,2.12,0,0,1-2.64,2.08c-2.27-.59-4.46-.82-5.24.23-1.19,1.58,1.63,5,3.57,9.19s4,9,2.89,18.22c-3.57,7.14-7.83,6.29-7.83,6.29s-8.32,1.39-12.42,0c-3.17-1.07-3.51-3.24-7.66-7.15-3.19-3-8.67-5-11.75-3.06-1,.65-2.09,1.94-3.06,11.23-1,9.82-.26,9.73-2.55,12.6-5.45,6.81-8.34,9.7-8.68,15.49-.48,8.14-.51,15.29,1.53,21.45,6,18.25,7,37.82,10.72,56.68,2.56,12.78,6.34,32.62-.51,42.38a15.52,15.52,0,0,1-6.64,5.62,15.76,15.76,0,0,1-9.94.55,7.19,7.19,0,0,1-5.42-6.07,13.54,13.54,0,0,1,1.06-7.76c1.94-4,5-4.38,7.15-7.15,1.61-2.09,4.49-7.87-5.1-28.08a154,154,0,0,0-21.45-33.19c-4,47.66-6.13,73-6.13,73s9.1-2,14.3,1c2.1,1.23,4.45,3.81,5.62,9.7l-43.41.51c-6.89-45.43-7-62-5.1-67.4.34-1,2.08-5.53,0-8.17-1.45-1.84-4.19-2.09-6.13-2.05.9,4.61,1.67,12.4-2,19.92C73.52,162.65,65,167,53.39,172.69c-17.1,8.41-25.87,8.25-26.56,13.28-.78,5.7,9.08,16.2,15.32,19.4.82.42,3.39,1.64,4.09,4.09.58,2,.13,5.06-1,5.1-8.86.34-10.56.34-21.11-1.7C11.71,210.46,9,196.18,1.3,183.93c-1.39-2.23,2-5.75,11.23-13.28,22-17.89,34.26-16.51,41.88-30.13,1.06-1.9,6.55-12.16,2.55-19.91-2-3.91-5.12-4.62-7.66-7.15C40.24,104.42,46.39,80.91,50.32,76.69Z"/></g></g></svg>