<svg xmlns="http://www.w3.org/2000/svg" viewBox="0 0 162.2 333.94"><defs><style>.cls-1{fill:#231f20;stroke:#231f20;stroke-miterlimit:10;stroke-width:2px;}</style></defs><g id="Layer_2" data-name="Layer 2"><g id="Layer_1-2" data-name="Layer 1"><path class="cls-1" d="M22.8,165.09c1.16-9.94,2.55-13,4.93-24.52,1.88-9,3.07-12.93,6.3-26.72,2-8.55,7.24-22.3,11.83-37.45,2.33-7.66,9.3-38.54,34.9-45.78A44.13,44.13,0,0,1,93.56,29a1.59,1.59,0,0,0,1.6-1.86c-.6-3.49-1-10,2.7-15.93C104.25,1,117.58,1,121.1,1c15,0,25.36,10.49,29.36,14.55a52.69,52.69,0,0,1,7.5,9.69,1.29,1.29,0,0,1-1,1.92,4.88,4.88,0,0,0-3.46,2.18,4.66,4.66,0,0,0,0,5.11,15,15,0,0,0,4.68,4.17c4.23,2.35,4.21,11.07-1.53,18.38-4.26,5.42-8.78,7.19-12.6,7.83-2.35.39-8.93,2.21-15.14-2.81-6.53-5.27-10.22-8.76-12.17-7.91-3.11,1.34-1.47,10.46-1,26.49.17,6.08-3.84,12.75-11.8,28.14-2.88,5.56-4.56,11.19-4.6,13.35-.19,9.25,9.76,11.36,16.15,25.21,7.59,16.47,11.11,27.32,18.89,46.21,1.9,4.6,2.94,11,0,16.85-2.05,4.09-7,9.33-13,9.19h0a4,4,0,0,1-3.22-2.43c-1.27-10.49-.16-14.35.48-18.63.58-3.92,1.43-6.6,1-10.6-.44-3.68-2.55-5.58-6.63-10.21a197,197,0,0,1-16.09-20.17c-2.13-3.17-4.42-6.93-9.19-9.45-.6-.31-1.18-.57-1.72-.8a5,5,0,0,0-5.49,1.15,24.78,24.78,0,0,0-6.32,11.14,25.28,25.28,0,0,0,1.53,16.34c3.49,8.06,9,9.56,17.87,18.13a87.59,87.59,0,0,1,13.23,16.32,5.44,5.44,0,0,1,.84,2.83q.61,45.06,1.25,90.13c3.33,2.48,16.64,12.5,23,19.4,1,1.08,2.65,3,2.3,5.11-.42,2.53-3.52,4.25-5.88,4.85-4.92,1.26-7.71-2.06-14.29-4.34-10.47-3.63-14.61.89-20.17-2.55-3.28-2-7.09-6.84-7.41-19.92q-1.47-37.1-3-74.2a4.31,4.31,0,0,0-4.87-4.18,3.83,3.83,0,0,0-.86.25c-2.43,1.05-4,4.93-2.89,9.52a5.41,5.41,0,0,1-1.32,4.88L31,289.26c-2.29,3.36-2.33,5.71-2,7.14.68,3.49,4,5.36,15.83,13.54,4.67,3.23,5.91,4.16,6.12,5.87.5,3.95-3,7.55-8,9.1-1.22.39-9.36.54-14.29-1.44-7.68-3.09-4.95-8.31-13.45-16.6-7.36-7.17-12.21-5.65-13.79-10.21-1.64-4.74,2.2-10.42,17.36-26,21.41-22.06,30.52-28,34-41.88,1.24-5,2.29-9.25.77-14.29-4.22-13.95-14.1-16.58-26.22-29.79C21.61,178.53,22.52,167.5,22.8,165.09Z"/></g></g></svg>