<svg xmlns="http://www.w3.org/2000/svg" viewBox="0 0 217.15 433.83" width="200"><defs><style>.cls-1{fill:#231f20;stroke:#231f20;stroke-miterlimit:10;stroke-width:2px;}</style></defs><g id="Layer_2" data-name="Layer 2"><g id="Layer_1-2" data-name="Layer 1"><path class="cls-1" d="M82.37,103.54c.16-2.15,2.85-33.5,26.75-51.36a3.39,3.39,0,0,0,1.14-1.55c2-5.9,13.47-37.8,28.28-47.06C154-6.07,183.05,14.33,186.25,16.64a3,3,0,0,1,.53.48c1,1.16,4.72,5.68,2.65,7.9a7.65,7.65,0,0,1-3.93,2.1A3.3,3.3,0,0,0,183,30.34h0a3.27,3.27,0,0,0,1.87,3c3.16,1.5,9.14,5,8.51,9.92-.7,5.49-1.29,11.22-1.47,13a3,3,0,0,1-.37,1.21A17.37,17.37,0,0,1,178.71,66a181.43,181.43,0,0,1-19.86,1.63,3.3,3.3,0,0,0-3.16,2.86l-1.12,8.17a3.25,3.25,0,0,0,.73,2.56c3.83,4.57,17.84,22.44,12.68,33.8-3.83,8.43-6.11,11.58-7.25,12.76a3.26,3.26,0,0,0-.94,2.25l-.14,9.31a3.47,3.47,0,0,0,.41,1.64l24.39,44.64a3.18,3.18,0,0,1,.32.81l11.39,47.23a4.08,4.08,0,0,1,.09.69l.65,24.32a3.36,3.36,0,0,1-.41,1.67c-1.68,3.1-8.07,14.08-14.21,13.49a11.79,11.79,0,0,1-8.76-5.3,3.26,3.26,0,0,1-.24-3.22c1.57-3.37,6.56-16.21,7.81-18.71,1-2-.42-14.14-1.21-18.28a3.2,3.2,0,0,0-.64-1.4c-3.56-4.49-25.44-32.3-26.07-38.71a11.09,11.09,0,0,0-.4-2.13,3.3,3.3,0,0,0-6.21-.24l-12.34,30.53a3.6,3.6,0,0,1-1.13,1.44c-1.37,1.08-3.48,5.84,7.83,26.57,12.52,23,15.77,32.34,16.39,34.32a3.63,3.63,0,0,1,.14.8l5.77,119.78s-.85,10,12.25,12.42c11.84,2.15,27.83,1,30.83.73a3.2,3.2,0,0,1,1,.07c2,.48,9,2.49,8.83,6.86-.1,3.05-.38,6.94-.59,9.59a3.31,3.31,0,0,1-3.26,3l-70.68.8a3.32,3.32,0,0,1-3-1.83l-1.1-2.21a3.12,3.12,0,0,1-.35-1.5l.16-32.53a3.4,3.4,0,0,0-.29-1.37c-1.63-3.65-9.56-21.64-9.41-26.07.16-4.62,1.66-41.47,1.85-46.15a3.27,3.27,0,0,1,.17-.88c.78-2.31,3.83-14.34-12.4-25.82-18-12.77-16.51-12.94-16.51-12.94L100.07,311s2-2.39-14.81,14.64S38.62,372.93,37.6,382.13s-1.53,12.93,6.3,20.25C51,409,68.49,415.75,71.78,417a3,3,0,0,0,1,.2c1.31.05,5.13.55,5.69,4.77l.17,1.28A3.3,3.3,0,0,1,75.28,427l-34.79-.75a3.35,3.35,0,0,1-1.58-.44L1.68,404.25s-3.57,4.43,5.62-14.12c8.53-17.22,20.29-45.59,21.93-49.57a3.22,3.22,0,0,1,.53-.87c2.25-2.65,15.36-18,24.52-25.14,7.37-5.74,10.06-9.29,11-10.77a3.36,3.36,0,0,0,.48-1.47l4.78-59.08a7.35,7.35,0,0,0-1.81-5.37c-2.58-3-6.7-9.69-7.28-22.54,0,0,1.5-16.28,6.3-20.94,6.12-6,9-18.72,9.17-20.16l0-.19,5.42-59.84c0-.1,0-.2,0-.3V103.54Z"/></g></g></svg>