<svg xmlns="http://www.w3.org/2000/svg" viewBox="0 0 235.37 480.39" width="200" ><defs><style>.cls-1{fill:#231f20;stroke:#231f20;stroke-miterlimit:10;stroke-width:2px;}</style></defs><g id="Layer_2" data-name="Layer 2"><g id="Layer_1-2" data-name="Layer 1"><path class="cls-1" d="M102.17,217.19,107,105.74a2.45,2.45,0,0,1,0-.27c.32-2.39,5-36.63,16.31-41.24a3.25,3.25,0,0,0,2.1-2.92l.47-29.06c0-.13,0-.24,0-.37.33-2.41,4.07-26.95,24-28.4,17-1.25,24.58-2.16,26.82-2.45a3,3,0,0,1,1.67.24c1.86.83,6.18,3.47,9.3,10.89a61.08,61.08,0,0,0,7.24,13.26,3.18,3.18,0,0,0,1,.83l2.27,1.26a3.18,3.18,0,0,1,1.63,3l-.13,1.67a3.18,3.18,0,0,1-3.17,2.94h0a3.18,3.18,0,0,0-3.19,3.18v.94a3.13,3.13,0,0,0,2.08,3,7.13,7.13,0,0,1,5.07,7.19c0,7.15,4.09,23-14.29,24-8.75.49-14.37.63-17.87.64a3.16,3.16,0,0,0-2.85,4.53c5.35,11.25,18.48,40.09,19.69,55.09,1.32,16.18-1.49,37.6-2.32,43.42a3.18,3.18,0,0,0,.84,2.64c3.95,4.14,18,18.77,28,27.47a91.26,91.26,0,0,0,16.84,11.63,11,11,0,0,1,5.83,9.38l0,1.05a19.7,19.7,0,0,1-8.79,17.18c-2,1.27-3.74,1.92-4.72,1.1-2.68-2.23-7.7-7.59-8.92-8.9a3.07,3.07,0,0,1-.45-.62c-1.45-2.69-11.65-20.72-25.35-22.14l-12.44-1.28a3.17,3.17,0,0,0-3.27,1.94c-2.29,5.58-8.42,20.24-11.64,25.74a3.13,3.13,0,0,0-.27,2.57c2.31,6.91,12.24,37.91,11.79,57.33-.47,20.11-.51,49.65-.51,54.47a3.23,3.23,0,0,1-.28,1.3l-4.07,9a3.18,3.18,0,0,0-.28,1.17l-3.53,82.16a3.22,3.22,0,0,0,.14,1.07c.73,2.44,4.6,11.56,21.8,14.2,13.58,2.09,19.09,4.18,21.22,5.3a3.17,3.17,0,0,1,1.56,2l.67,2.51a3.19,3.19,0,0,1-3.08,4H141.22A3.18,3.18,0,0,1,138,476.3l-1.93-66a3.18,3.18,0,0,0-.46-1.56c-2.23-3.62-13.37-21.76-4.16-40.17,7.15-14.29,8.23-24.3,8.58-27a3.16,3.16,0,0,0-.4-2l-5.6-9.81a3.18,3.18,0,0,0-5.87.9l-3.12,14.34a3.17,3.17,0,0,1-1.06,1.75l-81.6,69a3,3,0,0,0-.56.62c-1.16,1.73-5.35,9.27,1.8,19.55,6.83,9.81,11.87,18.2,13.34,20.69a3.18,3.18,0,0,1,.44,1.62V460a3.19,3.19,0,0,1-3,3.18L37.67,464a3.19,3.19,0,0,1-2.7-1.26c-2.86-3.81-11-15-14.29-24.19-3.52-9.69-15-18.23-18.12-20.4a3.15,3.15,0,0,1-1.21-1.68c-.78-2.75-1.37-9.84,11.16-14.69,15.17-5.87,26.59-23,27.51-24.41l.14-.19c2.16-2.8,49.41-63.79,47.41-44.33l7.32-58.54a15.07,15.07,0,0,0-3-11.14c-3-3.87-6.5-9.83-5.29-15.6A43,43,0,0,1,97.66,227.4,15.3,15.3,0,0,0,102.17,217.19Z"/></g></g></svg>