<svg xmlns="http://www.w3.org/2000/svg" viewBox="0 0 163.97 545.72" width="200"><defs><style>.cls-1{fill:#bcbec0;}.cls-2{fill:#231f20;stroke:#231f20;stroke-miterlimit:10;stroke-width:2px;}</style></defs><g id="Layer_2" data-name="Layer 2"><g id="Layer_1-2" data-name="Layer 1"><polygon class="cls-1" points="119.49 236.94 127.66 236.43 161.36 0 119.49 236.94"/><path class="cls-2" d="M18.89,214.06,14.81,129.3s4.08-19.92,12.25-21.45,6.13-4.08,6.13-4.08,5.11-6.13.51-12.26S17.87,70.57,17.87,70.57s-5.11-17.36,1.53-24,24-19.4,24-19.4l20-.38A13.48,13.48,0,0,1,77.07,38.63l0,.28c1,9.71,1,13.79,1,13.79s9.7,1,11.23,3.58a8.51,8.51,0,0,1,.86,2.24,9,9,0,0,1-2.9,9h0a19,19,0,0,0,2,11.23c.39.79.76,1.57,1.1,2.34A7.78,7.78,0,0,1,84.08,92l-5.73.56a6.83,6.83,0,0,0-6.09,5.83l-1.92,13.43c-.7,4.9,1.59,11.76,5.11,15.23,6,5.93,13.14,15.77,14.42,24.76C91.91,166.06,96,236,96,236l20.42,1s21.45-.51,22,5.11-1.53,22-5.62,24-25,1.53-25,1.53l-2.55-8.17L94,258s-7.65,49,1.54,65.87,15.83,31.15,18.89,65.87,5.11,91.92,5.11,91.92-5.62,31.66,17.36,33.7l22.5,2a4,4,0,0,1,3.11,5.89l-3.57,6.38a10.47,10.47,0,0,1-9.6,5.36l-44.85-1.92A7.82,7.82,0,0,1,97,524.43c1.42-13.79,3.19-41-3.55-51.47-9.19-14.3-17.36-42.39-15.31-55.66,1.5-9.76,3.27-18.13,3.91-21.89a4.56,4.56,0,0,0-.84-3.47l-12.27-16.5a5.11,5.11,0,0,0-4.09-2.06H63.79a3.1,3.1,0,0,0-3.09,3l-.38,18.88a13.06,13.06,0,0,1-1.47,5.77c-4.07,7.9-16.05,32.36-22.34,58.37C29,490.34,33.7,499,33.7,499S36.25,516.36,47,518.4c6,1.15,13.07-1,18.6.1a5.78,5.78,0,0,1,4,8.27l-1.15,2.3a10.54,10.54,0,0,1-10,5.81l-54-3a3.7,3.7,0,0,1-3.38-4.58c3.3-13.19,12.66-53.27,10.12-74.82,0,0,2.82-32.59,9.89-40.33a13.6,13.6,0,0,0,3.77-9.36l-.79-47.31a25.29,25.29,0,0,1,2.13-10.47c3.64-8.38,9-28.1-6.32-51.85,0,0-7.66-23.49,3.07-37.27A85.62,85.62,0,0,0,31.7,242.7a8.23,8.23,0,0,0-2.18-10.13C24.3,228.32,16.85,220.86,18.89,214.06Z"/><polygon class="cls-1" points="115.38 268.72 124.42 268.53 79.15 545.72 115.38 268.72"/></g></g></svg>