<svg xmlns="http://www.w3.org/2000/svg" viewBox="0 0 511.74 517.48" width="200"><defs><style>.cls-1{fill:#231f20;}.cls-1,.cls-2,.cls-3{stroke:#231f20;}.cls-1,.cls-2,.cls-3,.cls-4{stroke-miterlimit:10;}.cls-1,.cls-3,.cls-4{stroke-width:2px;}.cls-2,.cls-4{fill:none;}.cls-3{fill:#fff;}.cls-4{stroke:#bcbec0;}</style></defs><g id="Layer_2" data-name="Layer 2"><g id="Layer_1-2" data-name="Layer 1"><path class="cls-1" d="M154,59.6c-1.68-.26-2.17-4.49-1.7-6.12V45L187,8.88l36.09,27.24L183.24,77l-17.7.34-.34,7.83,5.1,2.72s-24.51,51.4-15,62.3.17,2.38.17,2.38l45.45,4.6,1-8.68,6.13-5.11,2.55.51.51-7.15s-21.44-22.47-10.72-37.28,15.83-24,20.43-23,23,1.53,23,1.53,19.41,6.64,17.37,20.42S261,101,261,101h0a2.63,2.63,0,0,1,2.63,2.72l-.08,2.55-.08,4.42a4.86,4.86,0,0,0,4.5,4.94h0l-.45,3.73a3.38,3.38,0,0,0,2.84,3.76h0a5,5,0,0,1-5.11,4.8l-1,0-.09,3.84a2.75,2.75,0,0,1-3.31,2.63h0s1.36,19.4-8,19.23-9,1.19-9,1.19v5.79l27.24.51,20.76,22.81-.68-27.23,9.88.68-1.71-6-15-8.68s-4.59-7.66-3.4-11.75-9.87-16.17-9.87-16.17-3.75-2.72,2.72-7.83,8-7.49,8-7.49,4.43-2.38,6.81.69a50.08,50.08,0,0,1,4.77,8.51s3.4-1,5.1,1,9.87,17.87,9.87,17.87L317,150l.85,4.59,9.53.34-1.36,49.54s12.42,8.34,13.95-1.71,11.07-46.29,11.07-46.29l2-6.3L349,122.92l-15.66-.68-.68-8.51,18.38-.68,1.7-4.42s17-5.79,24.51,0,14.3,5.1,14.3,5.1l2.72,1.7-2.38,4.43H381a33.75,33.75,0,0,1,3.06,24.85c-3.75,14-3.75,17.7-3.75,17.7l11.24,5.79,4.76,6.81-8.17,19.06s-18.38,19.07-19.4,44.26-52.43,8.85-52.43,8.85-19.06-16-32-.68-3.74,47.66-3.74,47.66L347,281.9s17.36-7.49,26.56,9.53,62.29,85.11,71.83,87.15,7.14,7.83,7.14,7.83,39.49,5.11,48.69-4.08,9.53,8.51,9.53,8.51L470.9,419.77l-2,7.83-17.37,9.54-15-15.32s-1.36-5.45-7.82-1.36-7.49,2.72-7.49,2.72l-38.81-52.43,6.12,100.43-14.29,1.36-.68,8.17s20.08,24.17,38.12,23.49,8.51,12.26,8.51,12.26l-89.87-3.75-3.06-6.81-1-26.21,3.74-1-.68-7.15h-5.11l2.05-106.21s-23.15,17.36-36.77,13.61-11.91-1-11.91-1l-1,10.56-16-.34v-9.88h-6.8l.68,24.51,6.81,1.37-1.71,31.65s31.32-2,45.62,2.05l14.3,4.08,3.74,1.7-.68,10.56h-7.83l-4.76-3.75s-23.83-3.74-25.19,1,4.76,7.15,4.76,7.15l18.38,16.68s9.88,7.49,10.9,15.66,4.76,6.47,4.76,6.47l-.13,4.85a7.4,7.4,0,0,1-7.93,7.19l-1.68-.13a11.51,11.51,0,0,1-10.58-9.93l-.78-5.72s-19.75-31.66-30.3-31l-10.55.68-2.05,9.53H240.43l-1.36-10.21S211.15,463,206.39,479l-4.77,16,4.7,1.28a3.12,3.12,0,0,1,2.25,3.6l-1.84,9.76s0,4.08-10.22,5.1-14.29-9.19-14.29-9.19v-7.83l1-4.42h0a7.55,7.55,0,0,1-4.11-7.67l1-8.33,12.26-.34s19.74-25.2,25.53-24.85-1.36-.69-1.36-.69l-22.47-.34s-28.25,11.58-26.89,15-2.73.68-2.73.68l3.07,4.43-.4,2.78a8.45,8.45,0,0,1-7.76,7.24l-4.18.3a7.41,7.41,0,0,1-7.93-7.53l.18-9.94h6.13l1-13.28H165.2l.34,3.41s25.87-15.66,37.1-18.39l35.07-.34-.34-31,7.49-1.71-.69-23.15-45.61-1,.68-10.55H176.43s-23.49-11.23-9.53-17l-10.21,1s10.89-52.77,16.34-56.17-1-1.36-1-1.36l2.05-18.73-4.77,1.37s-25.53,28.93-29.62,28.59a49.47,49.47,0,0,1-7.83-1.36l.34-3.4h-5.44l-2.39,33-73.87,5.78L1.79,298.92l22.13-48L62.73,288l36.42-.68s10.9-11.58,18.39-10.89l7.49.68,24.51-28.94-21.79-3.74S68.86,223,59,218.58l4.09-18.38-8.17-1-4.09,16.34L1.45,205l8.17-17,22.81,4.42s-.34-12.6,3.4-12.6h3.75l11.23-14.29,4.43,5.44-6.81,12.26,17.36,2.72s65.7,30,76.6,22.47l10.89-7.49-41.19-37.11s-5.45-3.74,1.36-12.93,25.87-69.79,25.87-69.79l4.43-8.51,5.79,3.06,4-15.14"/><polygon class="cls-2" points="224.09 33.39 187.66 0.71 150.9 42.92 152.26 44.97 186.98 8.88 223.07 36.12 224.09 33.39"/><path class="cls-3" d="M274,112.2l9.7,12.51s14.3-.25,11-8.17a61.64,61.64,0,0,0-8.17-13.79l-13.27,8.17Z"/><polygon class="cls-3" points="50.3 332.29 61.03 291.43 26.3 258.24 8.94 297.05 50.3 332.29"/><path class="cls-4" d="M398,116.73l18.77-27.89,9.59,41.35-.06-7.39L437.63,176l8.64-44.17,10.31,29.62,7.19-49.81,10.05,27.55,7.75-12.88"/></g></g></svg>