<svg id="Capa_1" enable-background="new 0 0 512 512" height="512" viewBox="0 0 512 512" width="512" xmlns="http://www.w3.org/2000/svg"><g><path d="m256.002 0c-101.525 0-180.569 81.603-180 181.04.308 52.734 23.672 102.48 64.087 136.494 16.465 13.872 25.913 34.409 25.913 56.338v63.128c0 41.353 33.647 75 75 75h15 15c41.353 0 75-33.647 75-75v-61.854c0-23.042 8.892-43.564 24.39-56.338 41.689-34.336 65.61-84.932 65.61-138.809 0-99.257-80.743-179.999-180-179.999z" fill="#f3f5f9"/><path d="m346.002 437v-61.854c0-23.042 8.892-43.564 24.39-56.338 41.689-34.336 65.61-84.932 65.61-138.809 0-99.258-80.742-180-180-180v512h15c41.352.001 75-33.646 75-74.999z" fill="#e1e6f0"/><path d="m256.002 30c-84.609 0-150.48 67.819-150 150.864.249 43.916 19.731 85.371 53.408 113.73 23.262 19.585 36.592 48.486 36.592 79.277v17.129l34.59 31h25.41 24.327l35.673-31v-15.854c0-32.036 12.876-61.011 35.317-79.482 34.746-28.623 54.683-70.781 54.683-115.664 0-82.705-67.295-150-150-150z" fill="#ffdf40"/><path d="m316.002 391v-15.854c0-32.036 12.876-61.011 35.317-79.482 34.746-28.623 54.683-70.781 54.683-115.664 0-82.705-67.295-150-150-150v392h24.327z" fill="#ffbe40"/><g><path d="m328.76 157.119c-2.739-4.424-7.559-7.119-12.759-7.119h-45v-45c0-6.958-4.79-13.008-11.558-14.604-1.154-.269-2.298-.214-3.442-.212-5.588.004-10.853 2.93-13.418 8.108l-60 120c-2.329 4.644-2.08 10.166.659 14.59s7.559 7.118 12.76 7.118h45v45c0 6.958 4.79 13.008 11.558 14.604 1.165.269 2.3.201 3.442.2 5.678-.009 10.891-3.027 13.418-8.095l60-120c2.329-4.644 2.08-10.166-.66-14.59z" fill="#ffbe40"/><path d="m269.419 291.709 60-120c2.329-4.644 2.08-10.166-.659-14.59s-7.558-7.119-12.758-7.119h-45v-45c0-6.958-4.79-13.008-11.558-14.604-1.154-.269-2.298-.214-3.442-.212v209.621c5.678-.01 10.891-3.028 13.417-8.096z" fill="#ff9f40"/></g><path d="m256.002 391h-60v46c0 24.814 20.186 45 45 45h15 15c24.814 0 45-20.186 45-45v-46z" fill="#4d3535"/><path d="m316.002 437v-46h-60v91h15c24.814 0 45-20.186 45-45z" fill="#331e1e"/></g></svg>